<svg version="1.1" xmlns="http://www.w3.org/2000/svg" xmlns:xlink="http://www.w3.org/1999/xlink" width="232.06552124023438" height="94.39412689208984"><defs></defs><g transform="translate(-100.64517211914062,83.44248962402344)"><rect fill="rgb(255,255,255)" stroke="none" x="0" y="0" width="232.06552124023438" height="94.39412689208984" fill-opacity="0" transform="translate(100.64517211914062,-83.44248962402344)"></rect><g transform="translate(116.03511845436202,48.04128719200717) rotate(-9,0,0) translate(-116.03511845436202,-48.04128719200717) matrix(1,0,0.08748866352592401,1,116.03511845436202,48.04128719200717)"><path fill="rgb(0,0,0)" fill-opacity="1" d="M8.59-56.65L8.59-56.65Q8.59-58.68 9.69-60.04Q10.79-61.40 12.37-62.19Q13.95-62.98 15.80-63.33Q17.64-63.69 19.22-63.69L19.22-63.69Q19.58-63.69 20.45-63.33Q21.33-62.98 21.60-62.81L21.60-62.81L21.60-62.72Q21.60-62.63 21.60-62.54L21.60-62.54Q21.60-61.75 20.94-61.40Q20.28-61.05 19.22-60.83Q18.17-60.61 16.98-60.43Q15.80-60.26 14.74-59.82Q13.69-59.38 13.03-58.59Q12.37-57.80 12.37-56.39L12.37-56.39Q12.37-54.46 14.21-52.44Q16.06-50.41 18.92-48.66Q21.77-46.90 25.29-45.36Q28.80-43.82 32.14-42.72Q35.48-41.63 38.21-41.05Q40.93-40.48 42.34-40.57L42.34-40.57Q42.60-40.57 43.26-40.79Q43.92-41.01 44.62-41.27Q45.33-41.54 45.99-41.80Q46.65-42.06 46.91-42.15L46.91-42.15Q46.91-42.33 46.95-42.90Q47.00-43.47 47.00-43.65L47.00-43.65Q47.00-44.70 46.73-45.45Q46.47-46.20 45.99-46.85Q45.50-47.51 44.76-48.17Q44.01-48.83 43.04-49.80L43.04-49.80Q42.25-50.59 40.67-52.17Q39.09-53.75 37.07-55.73Q35.04-57.71 32.80-59.86Q30.56-62.02 28.45-63.99Q26.34-65.97 24.76-67.51Q23.18-69.05 22.39-69.84L22.39-69.84Q19.84-73.09 18.39-76.25Q16.94-79.42 16.94-83.55L16.94-83.55Q16.94-87.24 18.39-90.23Q19.84-93.22 23.18-95.15L23.18-95.15Q23.35-95.15 23.88-95.15Q24.41-95.15 25.02-95.15Q25.64-95.15 26.21-95.15Q26.78-95.15 26.96-95.15L26.96-95.15Q29.42-95.15 32.14-94.23Q34.87-93.30 37.15-91.64Q39.44-89.97 40.93-87.59Q42.43-85.22 42.43-82.41L42.43-82.41Q42.43-82.05 42.34-81.31Q42.25-80.56 41.55-80.56L41.55-80.56Q40.23-80.56 39.22-81.40Q38.21-82.23 37.29-83.55Q36.36-84.87 35.48-86.32Q34.60-87.77 33.51-89.09Q32.41-90.40 30.96-91.24Q29.51-92.07 27.66-92.07L27.66-92.07Q26.25-92.07 24.85-91.24Q23.44-90.40 22.39-89.17Q21.33-87.94 20.67-86.45Q20.01-84.96 20.01-83.64L20.01-83.64Q20.01-81.70 20.54-79.64Q21.07-77.57 22.04-75.68Q23.00-73.79 24.28-72.08Q25.55-70.37 26.96-68.96L26.96-68.96L47.70-49.01Q49.02-47.87 49.94-45.93Q50.86-44.00 50.86-42.24L50.86-42.24Q50.86-40.83 50.25-39.78Q49.63-38.72 48.67-38.07Q47.70-37.41 46.43-37.10Q45.15-36.79 43.83-36.79L43.83-36.79L43.04-36.79Q42.34-36.88 40.84-37.27Q39.35-37.67 37.77-38.02Q36.19-38.37 34.82-38.68Q33.46-38.99 33.11-39.08L33.11-39.08Q31.70-39.52 29.37-40.44Q27.05-41.36 24.32-42.64Q21.60-43.91 18.78-45.54Q15.97-47.16 13.73-49.01Q11.49-50.85 10.04-52.83Q8.59-54.81 8.59-56.65ZM57.81-38.81L57.81-38.81Q57.81-39.69 58.25-40.57Q58.69-41.45 59.83-41.45L59.83-41.45Q60.80-41.45 61.67-40.75Q62.55-40.04 62.55-39.08L62.55-39.08Q62.55-37.85 61.76-37.27Q60.97-36.70 59.92-36.70L59.92-36.70Q58.69-36.70 58.25-37.14Q57.81-37.58 57.81-38.81ZM73.98-39.08L71.69-56.65Q71.08-56.92 70.11-57.40Q69.15-57.89 68.27-58.50Q67.39-59.12 66.73-59.86Q66.07-60.61 66.07-61.49L66.07-61.49Q67.39-61.49 68.49-61.05Q69.58-60.61 70.73-60.61L70.73-60.61Q70.73-66.94 70.42-73.18Q70.11-79.42 70.11-85.83L70.11-85.83Q70.11-86.19 70.11-87.06Q70.11-87.94 70.11-88.91Q70.11-89.88 70.11-90.80Q70.11-91.72 70.11-91.99L70.11-91.99Q70.64-95.15 72.71-96.73Q74.77-98.31 77.93-98.31L77.93-98.31Q79.96-98.31 82.37-97.26Q84.79-96.21 87.25-94.54Q89.71-92.87 92.04-90.62Q94.37-88.38 96.13-85.97Q97.89-83.55 98.98-81.18Q100.08-78.80 100.08-76.69L100.08-76.69Q100.08-70.80 98.41-66.94Q96.74-63.07 93.67-60.70Q90.59-58.32 86.33-57.09Q82.07-55.86 76.97-55.25L76.97-55.25Q77.23-53.23 77.41-51.51Q77.58-49.80 77.67-48.17Q77.76-46.55 77.85-44.92Q77.93-43.30 77.93-41.54L77.93-41.54Q77.93-41.10 77.89-40.31Q77.85-39.52 77.67-38.72Q77.50-37.93 77.10-37.32Q76.70-36.70 75.91-36.70L75.91-36.70Q75.56-36.70 75.21-36.97Q74.86-37.23 74.59-37.63Q74.33-38.02 74.16-38.42Q73.98-38.81 73.98-39.08L73.98-39.08ZM75.39-70.10L75.39-70.10Q75.39-68.70 75.21-66.76Q75.03-64.83 75.21-63.11Q75.39-61.40 76.26-60.17Q77.14-58.94 79.25-58.94L79.25-58.94Q82.77-58.94 85.84-60.21Q88.92-61.49 91.25-63.73Q93.58-65.97 94.90-69.05Q96.22-72.12 96.22-75.64L96.22-75.64Q96.22-77.57 95.38-79.77Q94.55-81.97 93.14-84.16Q91.73-86.36 89.84-88.34Q87.95-90.32 85.89-91.85Q83.82-93.39 81.71-94.27Q79.60-95.15 77.76-95.15L77.76-95.15Q76.18-95.15 75.12-94.18Q74.07-93.22 73.45-91.77Q72.84-90.32 72.62-88.65Q72.40-86.98 72.40-85.75L72.40-85.75Q72.40-83.81 73.01-83.02Q73.63-82.23 74.37-81.84Q75.12-81.44 75.74-81.09Q76.35-80.74 76.35-79.77L76.35-79.77Q76.35-78.80 76.13-78.19Q75.91-77.57 75.47-76.69L75.47-76.69Q75.47-76.25 75.47-75.33Q75.47-74.41 75.43-73.40Q75.39-72.39 75.39-71.46Q75.39-70.54 75.39-70.10ZM122.93-47.51L122.93-47.51Q121.62-45.93 119.90-44.17Q118.19-42.42 116.21-40.92Q114.23-39.43 112.08-38.42Q109.93-37.41 107.64-37.41L107.64-37.41Q102.98-37.41 102.98-41.89L102.98-41.89Q102.98-43.73 104.52-46.77Q106.06-49.80 108.52-53.14Q110.98-56.48 113.97-59.60Q116.96-62.72 119.95-64.78Q122.93-66.85 125.44-67.38Q127.94-67.90 129.53-65.88L129.53-65.88Q129.53-63.51 129.17-61.14Q128.82-58.76 128.47-56.43Q128.12-54.11 127.77-51.82Q127.42-49.54 127.42-47.16L127.42-47.16Q127.42-46.64 127.55-45.54Q127.68-44.44 127.99-43.34Q128.30-42.24 128.82-41.41Q129.35-40.57 130.23-40.57L130.23-40.57Q132.34-40.57 133.70-41.10Q135.06-41.63 136.07-42.37Q137.08-43.12 137.83-44.09Q138.58-45.05 139.41-46.02Q140.25-46.99 141.30-47.87Q142.36-48.74 144.03-49.27L144.03-49.27Q144.03-49.27 144.03-49.01Q144.03-48.74 144.03-48.57L144.03-48.57Q144.03-46.37 142.71-44.22Q141.39-42.06 139.37-40.39Q137.35-38.72 134.84-37.71Q132.34-36.70 129.97-36.70L129.97-36.70Q127.94-36.70 126.71-37.85Q125.48-38.99 124.74-40.57Q123.99-42.15 123.64-44.04Q123.29-45.93 122.93-47.51ZM124.52-59.03L124.52-59.03Q125.40-61.93 125.18-62.98Q124.96-64.04 123.90-63.82Q122.85-63.60 121.18-62.32Q119.51-61.05 117.57-59.25Q115.64-57.45 113.71-55.25Q111.77-53.05 110.10-51.07Q108.43-49.10 107.38-47.51Q106.32-45.93 106.06-45.23L106.06-45.23Q105.53-43.21 105.93-42.15Q106.32-41.10 107.16-40.70Q107.99-40.31 109.00-40.57Q110.01-40.83 110.72-41.36L110.72-41.36Q112.21-42.68 114.50-44.92Q116.78-47.16 118.94-49.71Q121.09-52.26 122.67-54.76Q124.25-57.27 124.52-59.03ZM152.47-39.78L152.47-39.78Q152.47-40.04 152.47-40.70Q152.47-41.36 152.42-42.11Q152.38-42.86 152.38-43.51Q152.38-44.17 152.38-44.53L152.38-44.53Q152.38-47.07 152.82-49.49Q153.26-51.91 153.83-54.33Q154.40-56.74 154.84-59.20Q155.28-61.66 155.28-64.21L155.28-64.21Q154.22-64.21 152.77-63.25Q151.32-62.28 149.74-61.05Q148.16-59.82 146.80-58.54Q145.43-57.27 144.73-56.65L144.73-56.65Q144.73-56.65 144.47-56.65Q144.20-56.65 144.03-56.65L144.03-56.65Q142.36-56.65 142.36-58.24L142.36-58.24Q142.36-59.29 143.46-60.48Q144.56-61.66 146.18-62.85Q147.81-64.04 149.70-65.09Q151.59-66.15 153.21-67.07Q154.84-67.99 155.94-68.70Q157.04-69.40 157.04-69.84L157.04-69.84Q157.83-73.53 157.74-75.99Q157.65-78.45 157.08-79.95Q156.51-81.44 155.50-82.01Q154.49-82.58 153.39-82.49Q152.29-82.41 151.15-81.70Q150.00-81.00 149.21-79.95L149.21-79.95Q148.60-80.65 148.42-81.13Q148.25-81.62 148.25-82.23L148.25-82.23Q150.27-84.25 152.25-84.78Q154.22-85.31 155.98-84.74Q157.74-84.16 159.15-82.76Q160.55-81.35 161.30-79.46Q162.05-77.57 162.00-75.42Q161.96-73.27 160.90-71.24L160.90-71.24Q161.08-71.33 161.61-71.60Q162.13-71.86 162.75-72.08Q163.36-72.30 163.94-72.52Q164.51-72.74 164.77-72.83L164.77-72.83L165.03-72.83L165.47-72.83Q165.56-72.83 165.69-72.26Q165.83-71.68 166.04-70.94Q166.26-70.19 166.44-69.62Q166.62-69.05 166.62-68.96L166.62-68.96L160.11-65.88Q160.02-65.80 159.54-63.99Q159.06-62.19 158.44-59.77Q157.83-57.36 157.21-54.76Q156.60-52.17 156.33-50.59L156.33-50.59Q156.16-50.24 156.03-49.23Q155.89-48.22 155.81-47.12Q155.72-46.02 155.63-45.01Q155.54-44.00 155.54-43.65L155.54-43.65Q155.54-43.12 155.63-42.42Q155.72-41.71 155.94-41.14Q156.16-40.57 156.60-40.18Q157.04-39.78 157.74-39.78L157.74-39.78Q160.29-39.78 162.27-40.79Q164.24-41.80 165.74-43.03Q167.23-44.26 168.42-45.32Q169.60-46.37 170.57-46.37L170.57-46.37Q170.75-46.37 171.05-46.33Q171.36-46.28 171.36-46.20L171.36-46.20Q171.10-43.65 169.91-41.84Q168.73-40.04 167.01-38.90Q165.30-37.76 163.01-37.23Q160.73-36.70 158.09-36.70L158.09-36.70Q157.30-36.70 156.33-36.79Q155.37-36.88 154.58-37.23Q153.78-37.58 153.21-38.20Q152.64-38.81 152.47-39.78ZM173.03-49.01L170.92-47.78Q170.31-47.43 169.96-47.60Q169.60-47.78 169.47-48.13Q169.34-48.48 169.30-48.96Q169.25-49.45 169.25-49.62L169.25-49.62Q169.25-51.38 169.69-51.78Q170.13-52.17 170.83-52.30Q171.54-52.44 172.33-52.70Q173.12-52.96 173.82-54.37L173.82-54.37Q174.88-56.57 175.71-58.98Q176.55-61.40 177.78-63.51Q179.01-65.62 180.90-66.94Q182.79-68.26 186.13-68.26L186.13-68.26Q186.66-68.26 187.31-68.17Q187.97-68.08 188.54-67.86Q189.12-67.64 189.51-67.16Q189.91-66.67 189.91-65.88L189.91-65.88Q189.91-64.04 188.98-62.59Q188.06-61.14 186.70-59.95Q185.34-58.76 183.75-57.71Q182.17-56.65 180.85-55.69Q179.54-54.72 178.61-53.67Q177.69-52.61 177.69-51.38L177.69-51.38L177.69-42.94Q177.69-41.98 178.44-41.41Q179.18-40.83 180.15-40.48Q181.12-40.13 182.17-39.96Q183.23-39.78 183.75-39.78L183.75-39.78Q185.86-39.78 187.97-40.53Q190.08-41.27 192.06-42.42Q194.04-43.56 195.80-44.92Q197.55-46.28 199.14-47.51L199.14-47.51Q199.66-47.95 200.06-48.44Q200.45-48.92 200.85-49.36Q201.25-49.80 201.73-50.11Q202.21-50.41 203.00-50.59L203.00-50.59Q203.00-50.50 203.00-50.24Q203.00-49.97 203.00-49.80L203.00-49.80Q203.00-49.10 202.87-48.57Q202.74-48.04 202.21-47.51L202.21-47.51Q200.28-45.32 198.08-43.38Q195.88-41.45 193.42-39.96Q190.96-38.46 188.24-37.58Q185.51-36.70 182.44-36.70L182.44-36.70Q179.36-36.70 177.69-37.58Q176.02-38.46 175.10-40.13Q174.17-41.80 173.82-44.09Q173.47-46.37 173.03-49.01L173.03-49.01ZM182.26-61.40L182.26-61.40Q182.26-61.58 181.95-61.36Q181.65-61.14 181.25-60.79Q180.85-60.43 180.68-60.13Q180.50-59.82 180.68-59.82L180.68-59.82Q181.12-59.73 181.73-60.35Q182.35-60.96 182.26-61.40ZM199.22-43.30L199.22-43.30Q199.22-43.82 200.37-44.17Q201.51-44.53 202.96-45.05Q204.41-45.58 205.86-46.33Q207.31-47.07 207.84-48.22L207.84-48.22Q207.66-52.44 207.92-56.22Q208.19-59.99 208.80-63.69Q209.42-67.38 210.34-71.11Q211.26-74.85 212.41-78.98L212.41-78.98Q212.23-79.86 212.80-81.70Q213.37-83.55 214.34-85.31Q215.31-87.06 216.49-88.43Q217.68-89.79 218.65-89.79L218.65-89.79Q219.70-89.79 220.19-88.65Q220.67-87.50 220.84-86.01Q221.02-84.52 220.93-82.98Q220.84-81.44 220.84-80.65L220.84-80.65Q220.84-76.17 220.32-71.99Q219.79-67.82 218.69-63.86Q217.59-59.91 216.01-56.04Q214.43-52.17 212.41-48.22L212.41-48.22Q212.41-48.22 212.36-47.95Q212.32-47.69 212.32-47.51L212.32-47.51Q212.41-44.35 214.17-43.08Q215.92-41.80 218.34-41.67Q220.76-41.54 223.35-42.24Q225.94-42.94 227.61-43.65L227.61-43.65L228.40-42.94Q227.96-42.15 227.13-41.32Q226.29-40.48 225.33-39.82Q224.36-39.16 223.44-38.77Q222.51-38.37 221.99-38.37L221.99-38.37Q219.70-38.37 218.03-38.55Q216.36-38.72 214.96-39.25Q213.55-39.78 212.23-40.83Q210.91-41.89 209.33-43.65L209.33-43.65L208.63-43.65Q207.84-42.94 207.18-42.55Q206.52-42.15 205.64-41.98Q204.76-41.80 203.66-41.76Q202.56-41.71 201.16-41.71L201.16-41.71Q200.19-41.71 199.71-42.02Q199.22-42.33 199.22-43.30ZM217.77-81.97L217.77-81.97Q216.01-79.59 214.82-76.61Q213.64-73.62 212.93-70.45Q212.23-67.29 211.88-64.04Q211.53-60.79 211.53-57.80L211.53-57.80Q211.53-57.62 211.57-57.01Q211.62-56.39 211.62-55.73Q211.62-55.07 211.66-54.46Q211.70-53.84 211.70-53.67L211.70-53.67Q211.79-53.75 212.06-54.02Q212.32-54.28 212.41-54.37L212.41-54.37L212.41-55.25Q213.73-58.15 214.74-60.87Q215.75-63.60 216.45-66.37Q217.15-69.14 217.50-72.04Q217.86-74.94 217.86-78.28L217.86-78.28Q217.86-78.45 217.86-79.02Q217.86-79.59 217.86-80.17Q217.86-80.74 217.81-81.26Q217.77-81.79 217.77-81.97Z"></path></g></g></svg>