<svg xmlns="http://www.w3.org/2000/svg" xmlns:xlink="http://www.w3.org/1999/xlink" width="200" zoomAndPan="magnify" viewBox="0 0 150 74.999997" height="100" preserveAspectRatio="xMidYMid meet" version="1.0"><defs><g/><clipPath id="ebe4490af7"><path d="M 61 2.25 L 89 2.25 L 89 24 L 61 24 Z M 61 2.25 " clip-rule="nonzero"/></clipPath></defs><g clip-path="url(#ebe4490af7)"><path fill="#000000" d="M 88.3125 5.410156 L 88.230469 5.078125 L 87.890625 5.035156 C 86.363281 4.855469 84.648438 5.050781 82.9375 5.597656 C 81.507812 6.054688 80.195312 6.800781 79.050781 7.78125 C 78.738281 6.433594 77.832031 3.949219 75.25 2.402344 L 74.996094 2.25 L 74.746094 2.402344 C 72.164062 3.949219 71.253906 6.433594 70.941406 7.78125 C 69.796875 6.800781 68.488281 6.054688 67.058594 5.597656 C 65.347656 5.050781 63.632812 4.855469 62.101562 5.035156 L 61.761719 5.078125 L 61.679688 5.410156 C 61.609375 5.691406 60.023438 12.386719 63.667969 17.839844 C 65.9375 21.234375 69.722656 23.359375 74.921875 24.152344 L 74.996094 24.164062 L 75.070312 24.152344 C 80.269531 23.359375 84.058594 21.234375 86.328125 17.839844 C 89.972656 12.386719 88.382812 5.691406 88.3125 5.410156 Z M 64.492188 17.296875 C 64.160156 16.796875 63.875 16.285156 63.628906 15.765625 C 65.363281 15.832031 72.03125 16.519531 74.3125 23.046875 C 69.796875 22.214844 66.492188 20.285156 64.492188 17.296875 Z M 85.503906 17.296875 C 83.503906 20.285156 80.203125 22.214844 75.6875 23.042969 C 76.761719 19.957031 78.90625 17.796875 82.066406 16.621094 C 83.914062 15.933594 85.609375 15.792969 86.367188 15.761719 C 86.125 16.285156 85.839844 16.796875 85.503906 17.296875 Z M 86.785156 14.773438 C 86.496094 14.765625 84.289062 14.75 81.757812 15.683594 C 80.007812 16.328125 77.878906 17.53125 76.277344 19.757812 C 78.304688 14.597656 83.5625 10.796875 83.628906 10.75 C 83.851562 10.589844 83.902344 10.28125 83.742188 10.0625 C 83.582031 9.839844 83.277344 9.785156 83.054688 9.945312 C 82.757812 10.15625 76.773438 14.488281 74.996094 20.417969 C 73.222656 14.488281 67.238281 10.160156 66.941406 9.945312 C 66.71875 9.789062 66.410156 9.839844 66.253906 10.0625 C 66.09375 10.28125 66.144531 10.589844 66.367188 10.75 C 66.433594 10.796875 71.6875 14.597656 73.714844 19.757812 C 72.117188 17.53125 69.988281 16.328125 68.238281 15.683594 C 65.703125 14.75 63.496094 14.765625 63.207031 14.773438 C 61.800781 10.992188 62.351562 7.125 62.566406 5.984375 C 63.871094 5.886719 65.308594 6.074219 66.753906 6.539062 C 69.839844 7.523438 72.34375 9.988281 73.625 13.296875 C 73.722656 13.550781 74.007812 13.675781 74.261719 13.578125 C 74.515625 13.480469 74.640625 13.195312 74.542969 12.941406 C 73.894531 11.265625 72.953125 9.792969 71.792969 8.585938 C 71.910156 7.808594 72.488281 5.0625 74.996094 3.410156 C 77.5 5.0625 78.078125 7.808594 78.195312 8.585938 C 77.035156 9.792969 76.09375 11.269531 75.445312 12.941406 C 75.347656 13.195312 75.476562 13.480469 75.726562 13.578125 C 75.980469 13.675781 76.265625 13.550781 76.363281 13.296875 C 77.644531 9.988281 80.148438 7.523438 83.234375 6.539062 C 84.679688 6.074219 86.121094 5.886719 87.421875 5.984375 C 87.640625 7.125 88.195312 10.992188 86.785156 14.773438 Z M 86.785156 14.773438 " fill-opacity="1" fill-rule="nonzero"/></g><g fill="#000000" fill-opacity="1"><g transform="translate(20.698411, 47.824424)"><g><path d="M 0.601562 0 L 5.003906 0.0195312 C 4.382812 -0.601562 4.480469 -4.382812 4.480469 -5.425781 L 4.480469 -13.105469 L 6.390625 -1.75 L 8.480469 -1.75 L 10.371094 -13.105469 L 10.371094 -5.425781 C 10.371094 -4.382812 10.492188 -0.601562 9.847656 0.0195312 L 14.25 0 C 13.628906 -0.625 13.726562 -4.402344 13.726562 -5.445312 L 13.726562 -15.496094 C 13.726562 -16.542969 13.628906 -20.320312 14.25 -20.945312 L 9.867188 -20.945312 L 7.4375 -7.074219 L 4.984375 -20.945312 L 0.601562 -20.945312 C 1.246094 -20.320312 1.125 -16.542969 1.125 -15.496094 L 1.125 -5.445312 C 1.125 -4.402344 1.246094 -0.625 0.601562 0 Z M 0.601562 0 "/></g></g></g><g fill="#000000" fill-opacity="1"><g transform="translate(34.605675, 47.824424)"><g><path d="M 0.601562 -20.945312 C 1.246094 -20.320312 1.125 -16.542969 1.125 -15.496094 L 1.125 -10.570312 C 1.125 -10.570312 1.125 -8.039062 1.125 -6.996094 C 1.125 -4.339844 1.246094 -3.195312 2.011719 -1.929688 C 2.753906 -0.703125 4.222656 0.199219 6.191406 0.199219 C 8.140625 0.199219 9.628906 -0.703125 10.351562 -1.929688 C 11.09375 -3.195312 11.214844 -4.339844 11.234375 -6.996094 L 11.234375 -15.476562 C 11.234375 -16.523438 11.113281 -20.300781 11.757812 -20.921875 L 7.335938 -20.921875 C 7.980469 -20.300781 7.859375 -16.523438 7.859375 -15.476562 C 7.859375 -14.429688 7.859375 -10.550781 7.859375 -10.652344 L 7.878906 -5.929688 C 7.878906 -4.644531 7.636719 -2.792969 6.191406 -2.792969 C 4.722656 -2.792969 4.480469 -4.644531 4.480469 -5.929688 C 4.480469 -6.972656 4.480469 -10.550781 4.480469 -10.570312 L 4.480469 -15.496094 C 4.480469 -16.542969 4.382812 -20.320312 5.003906 -20.945312 Z M 0.601562 -20.945312 "/></g></g></g><g fill="#000000" fill-opacity="1"><g transform="translate(46.000738, 47.824424)"><g><path d="M 0.601562 -20.945312 C 1.246094 -20.320312 1.125 -16.542969 1.125 -15.496094 L 1.125 -5.445312 C 1.125 -4.402344 1.246094 -0.625 0.625 0 L 4.984375 0 C 4.363281 -0.625 4.480469 -4.402344 4.480469 -5.445312 C 4.480469 -6.492188 4.460938 -12.640625 4.460938 -12.640625 L 8 0 L 11.960938 0 C 11.335938 -0.625 11.4375 -4.402344 11.4375 -5.445312 L 11.4375 -15.496094 C 11.4375 -16.542969 11.335938 -20.320312 11.960938 -20.945312 L 7.578125 -20.964844 C 8.199219 -20.339844 8.101562 -16.5625 8.101562 -15.515625 C 8.101562 -14.472656 8.058594 -7.597656 8.058594 -7.597656 L 4.523438 -20.945312 Z M 0.601562 -20.945312 "/></g></g></g><g fill="#000000" fill-opacity="1"><g transform="translate(57.616869, 47.824424)"><g><path d="M 1.003906 -7.136719 C 1.003906 -4.503906 1.125 -3.355469 1.871094 -2.109375 C 2.59375 -0.90625 3.917969 0 5.847656 0 C 7.777344 0 9.105469 -0.90625 9.828125 -2.109375 C 10.570312 -3.355469 10.691406 -4.503906 10.691406 -7.136719 L 10.691406 -7.71875 L 7.316406 -7.71875 L 7.316406 -6.089844 C 7.316406 -4.804688 7.277344 -2.976562 5.828125 -2.976562 C 4.382812 -2.976562 4.382812 -4.804688 4.382812 -6.089844 L 4.382812 -15.054688 C 4.382812 -16.339844 4.382812 -18.167969 5.828125 -18.167969 C 7.277344 -18.167969 7.316406 -16.339844 7.316406 -15.054688 L 7.316406 -13.628906 L 10.691406 -13.628906 L 10.691406 -14.007812 C 10.691406 -16.640625 10.570312 -17.769531 9.828125 -19.015625 C 9.105469 -20.238281 7.777344 -21.144531 5.847656 -21.144531 C 3.917969 -21.144531 2.59375 -20.238281 1.871094 -19.015625 C 1.125 -17.769531 1.003906 -16.640625 1.003906 -14.007812 Z M 1.003906 -7.136719 "/></g></g></g><g fill="#000000" fill-opacity="1"><g transform="translate(67.966851, 47.824424)"><g><path d="M 0.601562 -20.945312 C 1.246094 -20.320312 1.125 -16.542969 1.125 -15.496094 L 1.125 -5.445312 C 1.125 -4.402344 1.246094 -0.625 0.601562 0 L 5.003906 0 C 4.382812 -0.625 4.480469 -4.402344 4.480469 -5.445312 L 4.480469 -10.652344 L 7.539062 -10.652344 L 7.539062 -5.445312 C 7.539062 -4.402344 7.636719 -0.625 7.015625 0 L 11.417969 0 C 10.773438 -0.625 10.894531 -4.402344 10.894531 -5.445312 L 10.894531 -15.496094 C 10.894531 -16.542969 10.773438 -20.320312 11.417969 -20.945312 L 7.015625 -20.945312 C 7.636719 -20.320312 7.539062 -16.542969 7.539062 -15.496094 L 7.539062 -13.546875 L 4.480469 -13.546875 L 4.480469 -15.496094 C 4.480469 -16.542969 4.382812 -20.320312 5.003906 -20.945312 Z M 0.601562 -20.945312 "/></g></g></g><g fill="#000000" fill-opacity="1"><g transform="translate(79.04035, 47.824424)"><g/></g></g><g fill="#000000" fill-opacity="1"><g transform="translate(83.119858, 47.824424)"><g><path d="M 0.601562 0 L 5.003906 0.0195312 C 4.382812 -0.601562 4.480469 -4.382812 4.480469 -5.425781 L 4.480469 -13.105469 L 6.390625 -1.75 L 8.480469 -1.75 L 10.371094 -13.105469 L 10.371094 -5.425781 C 10.371094 -4.382812 10.492188 -0.601562 9.847656 0.0195312 L 14.25 0 C 13.628906 -0.625 13.726562 -4.402344 13.726562 -5.445312 L 13.726562 -15.496094 C 13.726562 -16.542969 13.628906 -20.320312 14.25 -20.945312 L 9.867188 -20.945312 L 7.4375 -7.074219 L 4.984375 -20.945312 L 0.601562 -20.945312 C 1.246094 -20.320312 1.125 -16.542969 1.125 -15.496094 L 1.125 -5.445312 C 1.125 -4.402344 1.246094 -0.625 0.601562 0 Z M 0.601562 0 "/></g></g></g><g fill="#000000" fill-opacity="1"><g transform="translate(97.02712, 47.824424)"><g><path d="M 5.207031 0 C 4.644531 -1.367188 4.945312 -3.136719 5.125 -4.601562 L 8.019531 -4.601562 C 8.199219 -3.136719 8.503906 -1.367188 7.9375 0 L 12.824219 0 C 12.199219 -1.1875 11.757812 -3.679688 11.476562 -5.226562 C 10.371094 -11.355469 9.667969 -15.074219 8.664062 -20.945312 L 4.480469 -20.945312 C 3.476562 -15.074219 2.714844 -11.355469 1.667969 -5.226562 C 1.40625 -3.679688 0.945312 -1.1875 0.320312 0 Z M 5.488281 -7.496094 L 6.574219 -16.382812 L 7.65625 -7.496094 Z M 5.488281 -7.496094 "/></g></g></g><g fill="#000000" fill-opacity="1"><g transform="translate(109.226088, 47.824424)"><g><path d="M 0.402344 -20.945312 L 0.402344 -17.285156 C 1.265625 -17.828125 1.890625 -18.050781 3.820312 -18.050781 C 3.820312 -17.726562 3.820312 -6.511719 3.820312 -5.105469 C 3.839844 -5.144531 3.820312 -5.125 3.839844 -5.003906 C 3.859375 -4.925781 3.839844 -4.964844 3.820312 -5.105469 C 3.820312 -4.785156 3.757812 -0.703125 3.035156 0 L 7.980469 0 C 7.253906 -0.703125 7.195312 -4.785156 7.195312 -5.105469 L 7.195312 -5.003906 C 7.195312 -5.125 7.195312 -5.144531 7.195312 -5.105469 L 7.195312 -18.050781 C 9.105469 -18.050781 9.75 -17.828125 10.59375 -17.285156 L 10.59375 -20.945312 Z M 0.402344 -20.945312 "/></g></g></g><g fill="#000000" fill-opacity="1"><g transform="translate(119.274605, 47.824424)"><g><path d="M 1.125 -15.496094 L 1.125 -5.445312 C 1.125 -4.402344 1.246094 -0.625 0.601562 0 L 9.609375 0 L 9.609375 -3.539062 C 7.980469 -2.8125 7.355469 -2.894531 5.445312 -2.894531 L 4.503906 -2.894531 L 4.503906 -10.652344 L 6.230469 -10.652344 C 7.398438 -10.652344 8.039062 -10.472656 8.824219 -10.050781 L 8.824219 -14.128906 C 8.039062 -13.707031 7.398438 -13.546875 6.230469 -13.546875 L 4.503906 -13.546875 L 4.503906 -18.070312 L 5.445312 -18.070312 C 7.355469 -18.070312 7.980469 -18.128906 9.609375 -17.40625 L 9.609375 -20.945312 L 0.601562 -20.945312 C 1.246094 -20.320312 1.125 -16.542969 1.125 -15.496094 Z M 1.125 -15.496094 "/></g></g></g><g fill="#000000" fill-opacity="1"><g transform="translate(17.05604, 60.637748)"><g><path d="M 5.34375 -6.34375 C 5.46875 -6.34375 5.570312 -6.300781 5.65625 -6.21875 C 5.75 -6.132812 5.796875 -6.03125 5.796875 -5.90625 C 5.796875 -5.84375 5.78125 -5.773438 5.75 -5.703125 L 3.46875 -0.296875 C 3.414062 -0.191406 3.347656 -0.113281 3.265625 -0.0625 C 3.191406 -0.0195312 3.113281 0 3.03125 0 C 2.945312 -0.0078125 2.863281 -0.0351562 2.78125 -0.078125 C 2.707031 -0.128906 2.648438 -0.195312 2.609375 -0.28125 L 0.328125 -5.703125 C 0.316406 -5.734375 0.304688 -5.765625 0.296875 -5.796875 C 0.285156 -5.828125 0.28125 -5.859375 0.28125 -5.890625 C 0.28125 -6.035156 0.332031 -6.144531 0.4375 -6.21875 C 0.539062 -6.300781 0.640625 -6.34375 0.734375 -6.34375 C 0.929688 -6.34375 1.078125 -6.242188 1.171875 -6.046875 L 3.234375 -1.140625 L 2.96875 -1.140625 L 4.921875 -6.046875 C 5.003906 -6.242188 5.144531 -6.34375 5.34375 -6.34375 Z M 5.34375 -6.34375 "/></g></g></g><g fill="#000000" fill-opacity="1"><g transform="translate(22.720333, 60.637748)"><g><path d="M 1.1875 -6.328125 L 4.3125 -6.328125 C 4.4375 -6.328125 4.539062 -6.28125 4.625 -6.1875 C 4.71875 -6.101562 4.765625 -6 4.765625 -5.875 C 4.765625 -5.75 4.71875 -5.644531 4.625 -5.5625 C 4.539062 -5.488281 4.4375 -5.453125 4.3125 -5.453125 L 1.59375 -5.453125 L 1.6875 -5.609375 L 1.6875 -3.578125 L 1.59375 -3.671875 L 3.90625 -3.671875 C 4.03125 -3.671875 4.132812 -3.628906 4.21875 -3.546875 C 4.3125 -3.460938 4.359375 -3.351562 4.359375 -3.21875 C 4.359375 -3.09375 4.3125 -2.988281 4.21875 -2.90625 C 4.132812 -2.832031 4.03125 -2.796875 3.90625 -2.796875 L 1.609375 -2.796875 L 1.6875 -2.875 L 1.6875 -0.796875 L 1.609375 -0.859375 L 4.3125 -0.859375 C 4.4375 -0.859375 4.539062 -0.816406 4.625 -0.734375 C 4.71875 -0.648438 4.765625 -0.550781 4.765625 -0.4375 C 4.765625 -0.3125 4.71875 -0.207031 4.625 -0.125 C 4.539062 -0.0390625 4.4375 0 4.3125 0 L 1.1875 0 C 1.0625 0 0.953125 -0.0390625 0.859375 -0.125 C 0.773438 -0.21875 0.734375 -0.328125 0.734375 -0.453125 L 0.734375 -5.859375 C 0.734375 -5.992188 0.773438 -6.101562 0.859375 -6.1875 C 0.953125 -6.28125 1.0625 -6.328125 1.1875 -6.328125 Z M 1.1875 -6.328125 "/></g></g></g><g fill="#000000" fill-opacity="1"><g transform="translate(27.454113, 60.637748)"><g><path d="M 5.46875 -6.328125 C 5.59375 -6.328125 5.691406 -6.285156 5.765625 -6.203125 C 5.835938 -6.117188 5.875 -6.015625 5.875 -5.890625 L 5.875 -0.453125 C 5.875 -0.328125 5.832031 -0.21875 5.75 -0.125 C 5.664062 -0.0390625 5.554688 0 5.421875 0 C 5.359375 0 5.289062 -0.0078125 5.21875 -0.03125 C 5.15625 -0.0625 5.101562 -0.0976562 5.0625 -0.140625 L 1.359375 -4.953125 L 1.5625 -5.0625 L 1.5625 -0.421875 C 1.5625 -0.304688 1.519531 -0.207031 1.4375 -0.125 C 1.363281 -0.0390625 1.265625 0 1.140625 0 C 1.015625 0 0.914062 -0.0390625 0.84375 -0.125 C 0.769531 -0.207031 0.734375 -0.304688 0.734375 -0.421875 L 0.734375 -5.859375 C 0.734375 -5.992188 0.773438 -6.101562 0.859375 -6.1875 C 0.953125 -6.28125 1.0625 -6.328125 1.1875 -6.328125 C 1.257812 -6.328125 1.332031 -6.3125 1.40625 -6.28125 C 1.476562 -6.25 1.535156 -6.207031 1.578125 -6.15625 L 5.1875 -1.4375 L 5.0625 -1.3125 L 5.0625 -5.890625 C 5.0625 -6.015625 5.097656 -6.117188 5.171875 -6.203125 C 5.253906 -6.285156 5.351562 -6.328125 5.46875 -6.328125 Z M 5.46875 -6.328125 "/></g></g></g><g fill="#000000" fill-opacity="1"><g transform="translate(33.651422, 60.637748)"><g><path d="M 3.390625 -6.328125 C 3.835938 -6.328125 4.226562 -6.242188 4.5625 -6.078125 C 4.894531 -5.910156 5.175781 -5.679688 5.40625 -5.390625 C 5.632812 -5.097656 5.804688 -4.757812 5.921875 -4.375 C 6.035156 -3.988281 6.09375 -3.582031 6.09375 -3.15625 C 6.09375 -2.570312 5.988281 -2.039062 5.78125 -1.5625 C 5.570312 -1.082031 5.269531 -0.703125 4.875 -0.421875 C 4.476562 -0.140625 3.984375 0 3.390625 0 L 1.1875 0 C 1.0625 0 0.953125 -0.0390625 0.859375 -0.125 C 0.773438 -0.21875 0.734375 -0.328125 0.734375 -0.453125 L 0.734375 -5.859375 C 0.734375 -5.992188 0.773438 -6.101562 0.859375 -6.1875 C 0.953125 -6.28125 1.0625 -6.328125 1.1875 -6.328125 Z M 3.3125 -0.859375 C 3.738281 -0.859375 4.082031 -0.960938 4.34375 -1.171875 C 4.601562 -1.390625 4.796875 -1.671875 4.921875 -2.015625 C 5.046875 -2.359375 5.109375 -2.738281 5.109375 -3.15625 C 5.109375 -3.46875 5.070312 -3.757812 5 -4.03125 C 4.9375 -4.300781 4.832031 -4.539062 4.6875 -4.75 C 4.539062 -4.96875 4.351562 -5.140625 4.125 -5.265625 C 3.894531 -5.390625 3.625 -5.453125 3.3125 -5.453125 L 1.59375 -5.453125 L 1.6875 -5.53125 L 1.6875 -0.78125 L 1.625 -0.859375 Z M 3.3125 -0.859375 "/></g></g></g><g fill="#000000" fill-opacity="1"><g transform="translate(39.695157, 60.637748)"><g><path d="M 1.6875 -0.453125 C 1.675781 -0.328125 1.625 -0.21875 1.53125 -0.125 C 1.4375 -0.0390625 1.328125 0 1.203125 0 C 1.066406 0 0.953125 -0.0390625 0.859375 -0.125 C 0.773438 -0.21875 0.734375 -0.328125 0.734375 -0.453125 L 0.734375 -5.859375 C 0.734375 -5.992188 0.773438 -6.101562 0.859375 -6.1875 C 0.953125 -6.28125 1.070312 -6.328125 1.21875 -6.328125 C 1.34375 -6.328125 1.453125 -6.28125 1.546875 -6.1875 C 1.640625 -6.101562 1.6875 -5.992188 1.6875 -5.859375 Z M 1.6875 -0.453125 "/></g></g></g><g fill="#000000" fill-opacity="1"><g transform="translate(41.68255, 60.637748)"><g><path d="M 5.46875 -6.328125 C 5.59375 -6.328125 5.691406 -6.285156 5.765625 -6.203125 C 5.835938 -6.117188 5.875 -6.015625 5.875 -5.890625 L 5.875 -0.453125 C 5.875 -0.328125 5.832031 -0.21875 5.75 -0.125 C 5.664062 -0.0390625 5.554688 0 5.421875 0 C 5.359375 0 5.289062 -0.0078125 5.21875 -0.03125 C 5.15625 -0.0625 5.101562 -0.0976562 5.0625 -0.140625 L 1.359375 -4.953125 L 1.5625 -5.0625 L 1.5625 -0.421875 C 1.5625 -0.304688 1.519531 -0.207031 1.4375 -0.125 C 1.363281 -0.0390625 1.265625 0 1.140625 0 C 1.015625 0 0.914062 -0.0390625 0.84375 -0.125 C 0.769531 -0.207031 0.734375 -0.304688 0.734375 -0.421875 L 0.734375 -5.859375 C 0.734375 -5.992188 0.773438 -6.101562 0.859375 -6.1875 C 0.953125 -6.28125 1.0625 -6.328125 1.1875 -6.328125 C 1.257812 -6.328125 1.332031 -6.3125 1.40625 -6.28125 C 1.476562 -6.25 1.535156 -6.207031 1.578125 -6.15625 L 5.1875 -1.4375 L 5.0625 -1.3125 L 5.0625 -5.890625 C 5.0625 -6.015625 5.097656 -6.117188 5.171875 -6.203125 C 5.253906 -6.285156 5.351562 -6.328125 5.46875 -6.328125 Z M 5.46875 -6.328125 "/></g></g></g><g fill="#000000" fill-opacity="1"><g transform="translate(47.879858, 60.637748)"><g><path d="M 3.671875 0.09375 C 3.210938 0.09375 2.78125 0.0078125 2.375 -0.15625 C 1.976562 -0.320312 1.628906 -0.550781 1.328125 -0.84375 C 1.035156 -1.144531 0.804688 -1.488281 0.640625 -1.875 C 0.472656 -2.269531 0.390625 -2.695312 0.390625 -3.15625 C 0.390625 -3.613281 0.472656 -4.035156 0.640625 -4.421875 C 0.804688 -4.816406 1.035156 -5.164062 1.328125 -5.46875 C 1.628906 -5.769531 1.976562 -6 2.375 -6.15625 C 2.78125 -6.320312 3.210938 -6.40625 3.671875 -6.40625 C 3.960938 -6.40625 4.242188 -6.375 4.515625 -6.3125 C 4.796875 -6.25 5.050781 -6.15625 5.28125 -6.03125 C 5.351562 -5.976562 5.40625 -5.914062 5.4375 -5.84375 C 5.476562 -5.78125 5.5 -5.71875 5.5 -5.65625 C 5.5 -5.53125 5.457031 -5.421875 5.375 -5.328125 C 5.289062 -5.234375 5.191406 -5.1875 5.078125 -5.1875 C 5.035156 -5.1875 4.988281 -5.191406 4.9375 -5.203125 C 4.894531 -5.210938 4.859375 -5.226562 4.828125 -5.25 C 4.648438 -5.332031 4.460938 -5.394531 4.265625 -5.4375 C 4.078125 -5.488281 3.878906 -5.515625 3.671875 -5.515625 C 3.234375 -5.515625 2.835938 -5.410156 2.484375 -5.203125 C 2.140625 -4.992188 1.863281 -4.707031 1.65625 -4.34375 C 1.457031 -3.988281 1.359375 -3.59375 1.359375 -3.15625 C 1.359375 -2.726562 1.457031 -2.332031 1.65625 -1.96875 C 1.863281 -1.613281 2.140625 -1.332031 2.484375 -1.125 C 2.835938 -0.914062 3.234375 -0.8125 3.671875 -0.8125 C 3.878906 -0.8125 4.097656 -0.835938 4.328125 -0.890625 C 4.566406 -0.941406 4.769531 -1.007812 4.9375 -1.09375 L 4.859375 -0.84375 L 4.859375 -2.5625 L 5 -2.4375 L 3.8125 -2.4375 C 3.6875 -2.4375 3.578125 -2.476562 3.484375 -2.5625 C 3.398438 -2.644531 3.359375 -2.753906 3.359375 -2.890625 C 3.359375 -3.023438 3.398438 -3.132812 3.484375 -3.21875 C 3.578125 -3.300781 3.6875 -3.34375 3.8125 -3.34375 L 5.375 -3.34375 C 5.507812 -3.34375 5.617188 -3.296875 5.703125 -3.203125 C 5.785156 -3.117188 5.828125 -3.007812 5.828125 -2.875 L 5.828125 -0.875 C 5.828125 -0.78125 5.800781 -0.695312 5.75 -0.625 C 5.707031 -0.5625 5.65625 -0.507812 5.59375 -0.46875 C 5.320312 -0.300781 5.019531 -0.164062 4.6875 -0.0625 C 4.363281 0.0390625 4.023438 0.09375 3.671875 0.09375 Z M 3.671875 0.09375 "/></g></g></g><g fill="#000000" fill-opacity="1"><g transform="translate(53.742903, 60.637748)"><g/></g></g><g fill="#000000" fill-opacity="1"><g transform="translate(55.829677, 60.637748)"><g><path d="M 1.203125 -6.328125 C 1.273438 -6.328125 1.347656 -6.304688 1.421875 -6.265625 C 1.503906 -6.234375 1.566406 -6.1875 1.609375 -6.125 L 3.90625 -2.625 L 3.515625 -2.640625 L 5.859375 -6.125 C 5.953125 -6.257812 6.070312 -6.328125 6.21875 -6.328125 C 6.34375 -6.328125 6.453125 -6.28125 6.546875 -6.1875 C 6.640625 -6.101562 6.6875 -6 6.6875 -5.875 L 6.6875 -0.453125 C 6.6875 -0.328125 6.644531 -0.21875 6.5625 -0.125 C 6.476562 -0.0390625 6.363281 0 6.21875 0 C 6.070312 0 5.957031 -0.0390625 5.875 -0.125 C 5.789062 -0.21875 5.75 -0.328125 5.75 -0.453125 L 5.75 -5.046875 L 6.03125 -4.96875 L 4.046875 -1.953125 C 4.003906 -1.898438 3.945312 -1.851562 3.875 -1.8125 C 3.8125 -1.769531 3.742188 -1.753906 3.671875 -1.765625 C 3.609375 -1.753906 3.539062 -1.769531 3.46875 -1.8125 C 3.40625 -1.851562 3.351562 -1.898438 3.3125 -1.953125 L 1.390625 -4.9375 L 1.609375 -5.296875 L 1.609375 -0.453125 C 1.609375 -0.328125 1.566406 -0.21875 1.484375 -0.125 C 1.398438 -0.0390625 1.296875 0 1.171875 0 C 1.035156 0 0.925781 -0.0390625 0.84375 -0.125 C 0.769531 -0.21875 0.734375 -0.328125 0.734375 -0.453125 L 0.734375 -5.875 C 0.734375 -6 0.78125 -6.101562 0.875 -6.1875 C 0.96875 -6.28125 1.078125 -6.328125 1.203125 -6.328125 Z M 1.203125 -6.328125 "/></g></g></g><g fill="#000000" fill-opacity="1"><g transform="translate(62.831029, 60.637748)"><g><path d="M 2.984375 -5.140625 L 0.953125 -0.265625 C 0.921875 -0.171875 0.867188 -0.0976562 0.796875 -0.046875 C 0.722656 0.00390625 0.640625 0.03125 0.546875 0.03125 C 0.421875 0.03125 0.320312 -0.00390625 0.25 -0.078125 C 0.1875 -0.148438 0.148438 -0.242188 0.140625 -0.359375 C 0.140625 -0.398438 0.148438 -0.445312 0.171875 -0.5 L 2.46875 -6.046875 C 2.507812 -6.148438 2.566406 -6.226562 2.640625 -6.28125 C 2.722656 -6.332031 2.816406 -6.359375 2.921875 -6.359375 C 3.003906 -6.359375 3.082031 -6.332031 3.15625 -6.28125 C 3.238281 -6.226562 3.300781 -6.148438 3.34375 -6.046875 L 5.609375 -0.59375 C 5.628906 -0.53125 5.640625 -0.46875 5.640625 -0.40625 C 5.640625 -0.269531 5.59375 -0.160156 5.5 -0.078125 C 5.414062 -0.00390625 5.320312 0.03125 5.21875 0.03125 C 5.125 0.03125 5.039062 0.00390625 4.96875 -0.046875 C 4.894531 -0.109375 4.835938 -0.179688 4.796875 -0.265625 L 2.75 -5.125 Z M 1.3125 -1.546875 L 1.71875 -2.421875 L 4.28125 -2.421875 L 4.4375 -1.546875 Z M 1.3125 -1.546875 "/></g></g></g><g fill="#000000" fill-opacity="1"><g transform="translate(68.206229, 60.637748)"><g><path d="M 5.21875 -5.953125 C 5.351562 -5.890625 5.429688 -5.789062 5.453125 -5.65625 C 5.472656 -5.519531 5.4375 -5.394531 5.34375 -5.28125 C 5.28125 -5.1875 5.195312 -5.132812 5.09375 -5.125 C 4.988281 -5.113281 4.882812 -5.132812 4.78125 -5.1875 C 4.601562 -5.269531 4.414062 -5.335938 4.21875 -5.390625 C 4.03125 -5.453125 3.828125 -5.484375 3.609375 -5.484375 C 3.265625 -5.484375 2.957031 -5.425781 2.6875 -5.3125 C 2.414062 -5.195312 2.179688 -5.035156 1.984375 -4.828125 C 1.785156 -4.628906 1.628906 -4.382812 1.515625 -4.09375 C 1.410156 -3.8125 1.359375 -3.5 1.359375 -3.15625 C 1.359375 -2.78125 1.414062 -2.445312 1.53125 -2.15625 C 1.644531 -1.863281 1.800781 -1.613281 2 -1.40625 C 2.207031 -1.207031 2.445312 -1.054688 2.71875 -0.953125 C 3 -0.859375 3.296875 -0.8125 3.609375 -0.8125 C 3.816406 -0.8125 4.015625 -0.832031 4.203125 -0.875 C 4.398438 -0.925781 4.585938 -1.003906 4.765625 -1.109375 C 4.878906 -1.160156 4.988281 -1.175781 5.09375 -1.15625 C 5.195312 -1.144531 5.28125 -1.09375 5.34375 -1 C 5.445312 -0.875 5.484375 -0.742188 5.453125 -0.609375 C 5.429688 -0.484375 5.359375 -0.390625 5.234375 -0.328125 C 5.078125 -0.242188 4.910156 -0.171875 4.734375 -0.109375 C 4.554688 -0.046875 4.375 0 4.1875 0.03125 C 4 0.0703125 3.804688 0.09375 3.609375 0.09375 C 3.179688 0.09375 2.773438 0.0195312 2.390625 -0.125 C 2.003906 -0.269531 1.660156 -0.476562 1.359375 -0.75 C 1.054688 -1.03125 0.816406 -1.375 0.640625 -1.78125 C 0.472656 -2.1875 0.390625 -2.644531 0.390625 -3.15625 C 0.390625 -3.625 0.46875 -4.054688 0.625 -4.453125 C 0.78125 -4.847656 1.003906 -5.1875 1.296875 -5.46875 C 1.597656 -5.75 1.941406 -5.96875 2.328125 -6.125 C 2.722656 -6.289062 3.148438 -6.375 3.609375 -6.375 C 3.898438 -6.375 4.179688 -6.335938 4.453125 -6.265625 C 4.734375 -6.191406 4.988281 -6.085938 5.21875 -5.953125 Z M 5.21875 -5.953125 "/></g></g></g><g fill="#000000" fill-opacity="1"><g transform="translate(73.527226, 60.637748)"><g><path d="M 1.21875 -6.328125 C 1.34375 -6.328125 1.453125 -6.28125 1.546875 -6.1875 C 1.640625 -6.101562 1.6875 -5.992188 1.6875 -5.859375 L 1.6875 -0.453125 C 1.675781 -0.328125 1.625 -0.21875 1.53125 -0.125 C 1.4375 -0.0390625 1.328125 0 1.203125 0 C 1.066406 0 0.953125 -0.0390625 0.859375 -0.125 C 0.773438 -0.21875 0.734375 -0.328125 0.734375 -0.453125 L 0.734375 -5.859375 C 0.734375 -5.992188 0.773438 -6.101562 0.859375 -6.1875 C 0.953125 -6.28125 1.070312 -6.328125 1.21875 -6.328125 Z M 5.296875 -6.328125 C 5.441406 -6.328125 5.554688 -6.28125 5.640625 -6.1875 C 5.722656 -6.101562 5.765625 -5.992188 5.765625 -5.859375 L 5.765625 -0.453125 C 5.765625 -0.328125 5.71875 -0.21875 5.625 -0.125 C 5.539062 -0.0390625 5.425781 0 5.28125 0 C 5.15625 0 5.046875 -0.0390625 4.953125 -0.125 C 4.867188 -0.21875 4.828125 -0.328125 4.828125 -0.453125 L 4.828125 -5.859375 C 4.828125 -5.992188 4.875 -6.101562 4.96875 -6.1875 C 5.0625 -6.28125 5.171875 -6.328125 5.296875 -6.328125 Z M 1.1875 -3.625 L 5.296875 -3.625 L 5.296875 -2.765625 L 1.171875 -2.765625 Z M 1.1875 -3.625 "/></g></g></g><g fill="#000000" fill-opacity="1"><g transform="translate(79.598056, 60.637748)"><g><path d="M 1.6875 -0.453125 C 1.675781 -0.328125 1.625 -0.21875 1.53125 -0.125 C 1.4375 -0.0390625 1.328125 0 1.203125 0 C 1.066406 0 0.953125 -0.0390625 0.859375 -0.125 C 0.773438 -0.21875 0.734375 -0.328125 0.734375 -0.453125 L 0.734375 -5.859375 C 0.734375 -5.992188 0.773438 -6.101562 0.859375 -6.1875 C 0.953125 -6.28125 1.070312 -6.328125 1.21875 -6.328125 C 1.34375 -6.328125 1.453125 -6.28125 1.546875 -6.1875 C 1.640625 -6.101562 1.6875 -5.992188 1.6875 -5.859375 Z M 1.6875 -0.453125 "/></g></g></g><g fill="#000000" fill-opacity="1"><g transform="translate(81.585449, 60.637748)"><g><path d="M 5.46875 -6.328125 C 5.59375 -6.328125 5.691406 -6.285156 5.765625 -6.203125 C 5.835938 -6.117188 5.875 -6.015625 5.875 -5.890625 L 5.875 -0.453125 C 5.875 -0.328125 5.832031 -0.21875 5.75 -0.125 C 5.664062 -0.0390625 5.554688 0 5.421875 0 C 5.359375 0 5.289062 -0.0078125 5.21875 -0.03125 C 5.15625 -0.0625 5.101562 -0.0976562 5.0625 -0.140625 L 1.359375 -4.953125 L 1.5625 -5.0625 L 1.5625 -0.421875 C 1.5625 -0.304688 1.519531 -0.207031 1.4375 -0.125 C 1.363281 -0.0390625 1.265625 0 1.140625 0 C 1.015625 0 0.914062 -0.0390625 0.84375 -0.125 C 0.769531 -0.207031 0.734375 -0.304688 0.734375 -0.421875 L 0.734375 -5.859375 C 0.734375 -5.992188 0.773438 -6.101562 0.859375 -6.1875 C 0.953125 -6.28125 1.0625 -6.328125 1.1875 -6.328125 C 1.257812 -6.328125 1.332031 -6.3125 1.40625 -6.28125 C 1.476562 -6.25 1.535156 -6.207031 1.578125 -6.15625 L 5.1875 -1.4375 L 5.0625 -1.3125 L 5.0625 -5.890625 C 5.0625 -6.015625 5.097656 -6.117188 5.171875 -6.203125 C 5.253906 -6.285156 5.351562 -6.328125 5.46875 -6.328125 Z M 5.46875 -6.328125 "/></g></g></g><g fill="#000000" fill-opacity="1"><g transform="translate(87.782757, 60.637748)"><g><path d="M 1.1875 -6.328125 L 4.3125 -6.328125 C 4.4375 -6.328125 4.539062 -6.28125 4.625 -6.1875 C 4.71875 -6.101562 4.765625 -6 4.765625 -5.875 C 4.765625 -5.75 4.71875 -5.644531 4.625 -5.5625 C 4.539062 -5.488281 4.4375 -5.453125 4.3125 -5.453125 L 1.59375 -5.453125 L 1.6875 -5.609375 L 1.6875 -3.578125 L 1.59375 -3.671875 L 3.90625 -3.671875 C 4.03125 -3.671875 4.132812 -3.628906 4.21875 -3.546875 C 4.3125 -3.460938 4.359375 -3.351562 4.359375 -3.21875 C 4.359375 -3.09375 4.3125 -2.988281 4.21875 -2.90625 C 4.132812 -2.832031 4.03125 -2.796875 3.90625 -2.796875 L 1.609375 -2.796875 L 1.6875 -2.875 L 1.6875 -0.796875 L 1.609375 -0.859375 L 4.3125 -0.859375 C 4.4375 -0.859375 4.539062 -0.816406 4.625 -0.734375 C 4.71875 -0.648438 4.765625 -0.550781 4.765625 -0.4375 C 4.765625 -0.3125 4.71875 -0.207031 4.625 -0.125 C 4.539062 -0.0390625 4.4375 0 4.3125 0 L 1.1875 0 C 1.0625 0 0.953125 -0.0390625 0.859375 -0.125 C 0.773438 -0.21875 0.734375 -0.328125 0.734375 -0.453125 L 0.734375 -5.859375 C 0.734375 -5.992188 0.773438 -6.101562 0.859375 -6.1875 C 0.953125 -6.28125 1.0625 -6.328125 1.1875 -6.328125 Z M 1.1875 -6.328125 "/></g></g></g><g fill="#000000" fill-opacity="1"><g transform="translate(92.516536, 60.637748)"><g/></g></g><g fill="#000000" fill-opacity="1"><g transform="translate(94.60331, 60.637748)"><g><path d="M 2.671875 0.09375 C 2.234375 0.09375 1.847656 0.0351562 1.515625 -0.078125 C 1.179688 -0.203125 0.859375 -0.40625 0.546875 -0.6875 C 0.484375 -0.738281 0.4375 -0.796875 0.40625 -0.859375 C 0.375 -0.929688 0.359375 -1.003906 0.359375 -1.078125 C 0.359375 -1.191406 0.398438 -1.289062 0.484375 -1.375 C 0.566406 -1.46875 0.671875 -1.515625 0.796875 -1.515625 C 0.890625 -1.515625 0.976562 -1.484375 1.0625 -1.421875 C 1.289062 -1.210938 1.53125 -1.050781 1.78125 -0.9375 C 2.03125 -0.832031 2.328125 -0.78125 2.671875 -0.78125 C 2.910156 -0.78125 3.128906 -0.816406 3.328125 -0.890625 C 3.523438 -0.972656 3.679688 -1.078125 3.796875 -1.203125 C 3.921875 -1.335938 3.984375 -1.492188 3.984375 -1.671875 C 3.984375 -1.890625 3.921875 -2.066406 3.796875 -2.203125 C 3.679688 -2.347656 3.503906 -2.46875 3.265625 -2.5625 C 3.035156 -2.65625 2.757812 -2.734375 2.4375 -2.796875 C 2.132812 -2.847656 1.863281 -2.921875 1.625 -3.015625 C 1.382812 -3.117188 1.179688 -3.242188 1.015625 -3.390625 C 0.847656 -3.535156 0.71875 -3.710938 0.625 -3.921875 C 0.539062 -4.128906 0.5 -4.367188 0.5 -4.640625 C 0.5 -5.003906 0.59375 -5.316406 0.78125 -5.578125 C 0.976562 -5.847656 1.238281 -6.050781 1.5625 -6.1875 C 1.894531 -6.332031 2.269531 -6.40625 2.6875 -6.40625 C 3.070312 -6.40625 3.425781 -6.347656 3.75 -6.234375 C 4.082031 -6.117188 4.351562 -5.960938 4.5625 -5.765625 C 4.707031 -5.640625 4.78125 -5.503906 4.78125 -5.359375 C 4.78125 -5.242188 4.734375 -5.140625 4.640625 -5.046875 C 4.554688 -4.953125 4.457031 -4.90625 4.34375 -4.90625 C 4.257812 -4.90625 4.1875 -4.929688 4.125 -4.984375 C 4.03125 -5.085938 3.898438 -5.175781 3.734375 -5.25 C 3.578125 -5.332031 3.40625 -5.398438 3.21875 -5.453125 C 3.03125 -5.515625 2.851562 -5.546875 2.6875 -5.546875 C 2.414062 -5.546875 2.179688 -5.503906 1.984375 -5.421875 C 1.796875 -5.347656 1.648438 -5.25 1.546875 -5.125 C 1.453125 -5 1.40625 -4.847656 1.40625 -4.671875 C 1.40625 -4.460938 1.460938 -4.289062 1.578125 -4.15625 C 1.691406 -4.03125 1.851562 -3.925781 2.0625 -3.84375 C 2.28125 -3.757812 2.523438 -3.6875 2.796875 -3.625 C 3.117188 -3.550781 3.410156 -3.46875 3.671875 -3.375 C 3.941406 -3.289062 4.164062 -3.175781 4.34375 -3.03125 C 4.519531 -2.882812 4.65625 -2.707031 4.75 -2.5 C 4.851562 -2.289062 4.90625 -2.03125 4.90625 -1.71875 C 4.90625 -1.351562 4.800781 -1.035156 4.59375 -0.765625 C 4.394531 -0.492188 4.125 -0.28125 3.78125 -0.125 C 3.445312 0.0195312 3.078125 0.09375 2.671875 0.09375 Z M 2.671875 0.09375 "/></g></g></g><g fill="#000000" fill-opacity="1"><g transform="translate(99.463567, 60.637748)"><g><path d="M 1.1875 -6.328125 L 4.3125 -6.328125 C 4.4375 -6.328125 4.539062 -6.28125 4.625 -6.1875 C 4.71875 -6.101562 4.765625 -6 4.765625 -5.875 C 4.765625 -5.75 4.71875 -5.644531 4.625 -5.5625 C 4.539062 -5.488281 4.4375 -5.453125 4.3125 -5.453125 L 1.59375 -5.453125 L 1.6875 -5.609375 L 1.6875 -3.578125 L 1.59375 -3.671875 L 3.90625 -3.671875 C 4.03125 -3.671875 4.132812 -3.628906 4.21875 -3.546875 C 4.3125 -3.460938 4.359375 -3.351562 4.359375 -3.21875 C 4.359375 -3.09375 4.3125 -2.988281 4.21875 -2.90625 C 4.132812 -2.832031 4.03125 -2.796875 3.90625 -2.796875 L 1.609375 -2.796875 L 1.6875 -2.875 L 1.6875 -0.796875 L 1.609375 -0.859375 L 4.3125 -0.859375 C 4.4375 -0.859375 4.539062 -0.816406 4.625 -0.734375 C 4.71875 -0.648438 4.765625 -0.550781 4.765625 -0.4375 C 4.765625 -0.3125 4.71875 -0.207031 4.625 -0.125 C 4.539062 -0.0390625 4.4375 0 4.3125 0 L 1.1875 0 C 1.0625 0 0.953125 -0.0390625 0.859375 -0.125 C 0.773438 -0.21875 0.734375 -0.328125 0.734375 -0.453125 L 0.734375 -5.859375 C 0.734375 -5.992188 0.773438 -6.101562 0.859375 -6.1875 C 0.953125 -6.28125 1.0625 -6.328125 1.1875 -6.328125 Z M 1.1875 -6.328125 "/></g></g></g><g fill="#000000" fill-opacity="1"><g transform="translate(104.197351, 60.637748)"><g><path d="M 1.265625 0 C 1.128906 0 1.003906 -0.0390625 0.890625 -0.125 C 0.785156 -0.21875 0.734375 -0.328125 0.734375 -0.453125 L 0.734375 -5.859375 C 0.734375 -5.992188 0.773438 -6.101562 0.859375 -6.1875 C 0.953125 -6.28125 1.0625 -6.328125 1.1875 -6.328125 L 3.734375 -6.328125 C 4.066406 -6.328125 4.367188 -6.242188 4.640625 -6.078125 C 4.910156 -5.921875 5.125 -5.703125 5.28125 -5.421875 C 5.445312 -5.140625 5.53125 -4.820312 5.53125 -4.46875 C 5.53125 -4.21875 5.484375 -3.984375 5.390625 -3.765625 C 5.296875 -3.546875 5.164062 -3.351562 5 -3.1875 C 4.84375 -3.019531 4.660156 -2.894531 4.453125 -2.8125 L 4.359375 -2.984375 C 4.546875 -2.910156 4.707031 -2.8125 4.84375 -2.6875 C 4.976562 -2.570312 5.085938 -2.429688 5.171875 -2.265625 C 5.253906 -2.097656 5.296875 -1.910156 5.296875 -1.703125 C 5.316406 -1.515625 5.332031 -1.359375 5.34375 -1.234375 C 5.363281 -1.109375 5.390625 -1.003906 5.421875 -0.921875 C 5.453125 -0.847656 5.503906 -0.789062 5.578125 -0.75 C 5.691406 -0.6875 5.757812 -0.59375 5.78125 -0.46875 C 5.8125 -0.351562 5.785156 -0.25 5.703125 -0.15625 C 5.648438 -0.0820312 5.582031 -0.0351562 5.5 -0.015625 C 5.414062 0.00390625 5.332031 0.0078125 5.25 0 C 5.164062 -0.0195312 5.097656 -0.046875 5.046875 -0.078125 C 4.941406 -0.128906 4.835938 -0.210938 4.734375 -0.328125 C 4.640625 -0.441406 4.5625 -0.597656 4.5 -0.796875 C 4.445312 -0.992188 4.421875 -1.253906 4.421875 -1.578125 C 4.421875 -1.734375 4.394531 -1.863281 4.34375 -1.96875 C 4.289062 -2.070312 4.222656 -2.160156 4.140625 -2.234375 C 4.054688 -2.304688 3.957031 -2.359375 3.84375 -2.390625 C 3.726562 -2.421875 3.601562 -2.4375 3.46875 -2.4375 L 1.546875 -2.4375 L 1.6875 -2.625 L 1.6875 -0.453125 C 1.6875 -0.328125 1.648438 -0.21875 1.578125 -0.125 C 1.503906 -0.0390625 1.398438 0 1.265625 0 Z M 1.5625 -3.21875 L 3.71875 -3.21875 C 3.851562 -3.226562 3.984375 -3.285156 4.109375 -3.390625 C 4.242188 -3.492188 4.351562 -3.632812 4.4375 -3.8125 C 4.519531 -4 4.5625 -4.207031 4.5625 -4.4375 C 4.5625 -4.726562 4.472656 -4.96875 4.296875 -5.15625 C 4.128906 -5.351562 3.925781 -5.453125 3.6875 -5.453125 L 1.578125 -5.453125 L 1.6875 -5.6875 L 1.6875 -3.03125 Z M 1.5625 -3.21875 "/></g></g></g><g fill="#000000" fill-opacity="1"><g transform="translate(109.924892, 60.637748)"><g><path d="M 5.34375 -6.34375 C 5.46875 -6.34375 5.570312 -6.300781 5.65625 -6.21875 C 5.75 -6.132812 5.796875 -6.03125 5.796875 -5.90625 C 5.796875 -5.84375 5.78125 -5.773438 5.75 -5.703125 L 3.46875 -0.296875 C 3.414062 -0.191406 3.347656 -0.113281 3.265625 -0.0625 C 3.191406 -0.0195312 3.113281 0 3.03125 0 C 2.945312 -0.0078125 2.863281 -0.0351562 2.78125 -0.078125 C 2.707031 -0.128906 2.648438 -0.195312 2.609375 -0.28125 L 0.328125 -5.703125 C 0.316406 -5.734375 0.304688 -5.765625 0.296875 -5.796875 C 0.285156 -5.828125 0.28125 -5.859375 0.28125 -5.890625 C 0.28125 -6.035156 0.332031 -6.144531 0.4375 -6.21875 C 0.539062 -6.300781 0.640625 -6.34375 0.734375 -6.34375 C 0.929688 -6.34375 1.078125 -6.242188 1.171875 -6.046875 L 3.234375 -1.140625 L 2.96875 -1.140625 L 4.921875 -6.046875 C 5.003906 -6.242188 5.144531 -6.34375 5.34375 -6.34375 Z M 5.34375 -6.34375 "/></g></g></g><g fill="#000000" fill-opacity="1"><g transform="translate(115.589188, 60.637748)"><g><path d="M 1.6875 -0.453125 C 1.675781 -0.328125 1.625 -0.21875 1.53125 -0.125 C 1.4375 -0.0390625 1.328125 0 1.203125 0 C 1.066406 0 0.953125 -0.0390625 0.859375 -0.125 C 0.773438 -0.21875 0.734375 -0.328125 0.734375 -0.453125 L 0.734375 -5.859375 C 0.734375 -5.992188 0.773438 -6.101562 0.859375 -6.1875 C 0.953125 -6.28125 1.070312 -6.328125 1.21875 -6.328125 C 1.34375 -6.328125 1.453125 -6.28125 1.546875 -6.1875 C 1.640625 -6.101562 1.6875 -5.992188 1.6875 -5.859375 Z M 1.6875 -0.453125 "/></g></g></g><g fill="#000000" fill-opacity="1"><g transform="translate(117.576586, 60.637748)"><g><path d="M 5.21875 -5.953125 C 5.351562 -5.890625 5.429688 -5.789062 5.453125 -5.65625 C 5.472656 -5.519531 5.4375 -5.394531 5.34375 -5.28125 C 5.28125 -5.1875 5.195312 -5.132812 5.09375 -5.125 C 4.988281 -5.113281 4.882812 -5.132812 4.78125 -5.1875 C 4.601562 -5.269531 4.414062 -5.335938 4.21875 -5.390625 C 4.03125 -5.453125 3.828125 -5.484375 3.609375 -5.484375 C 3.265625 -5.484375 2.957031 -5.425781 2.6875 -5.3125 C 2.414062 -5.195312 2.179688 -5.035156 1.984375 -4.828125 C 1.785156 -4.628906 1.628906 -4.382812 1.515625 -4.09375 C 1.410156 -3.8125 1.359375 -3.5 1.359375 -3.15625 C 1.359375 -2.78125 1.414062 -2.445312 1.53125 -2.15625 C 1.644531 -1.863281 1.800781 -1.613281 2 -1.40625 C 2.207031 -1.207031 2.445312 -1.054688 2.71875 -0.953125 C 3 -0.859375 3.296875 -0.8125 3.609375 -0.8125 C 3.816406 -0.8125 4.015625 -0.832031 4.203125 -0.875 C 4.398438 -0.925781 4.585938 -1.003906 4.765625 -1.109375 C 4.878906 -1.160156 4.988281 -1.175781 5.09375 -1.15625 C 5.195312 -1.144531 5.28125 -1.09375 5.34375 -1 C 5.445312 -0.875 5.484375 -0.742188 5.453125 -0.609375 C 5.429688 -0.484375 5.359375 -0.390625 5.234375 -0.328125 C 5.078125 -0.242188 4.910156 -0.171875 4.734375 -0.109375 C 4.554688 -0.046875 4.375 0 4.1875 0.03125 C 4 0.0703125 3.804688 0.09375 3.609375 0.09375 C 3.179688 0.09375 2.773438 0.0195312 2.390625 -0.125 C 2.003906 -0.269531 1.660156 -0.476562 1.359375 -0.75 C 1.054688 -1.03125 0.816406 -1.375 0.640625 -1.78125 C 0.472656 -2.1875 0.390625 -2.644531 0.390625 -3.15625 C 0.390625 -3.625 0.46875 -4.054688 0.625 -4.453125 C 0.78125 -4.847656 1.003906 -5.1875 1.296875 -5.46875 C 1.597656 -5.75 1.941406 -5.96875 2.328125 -6.125 C 2.722656 -6.289062 3.148438 -6.375 3.609375 -6.375 C 3.898438 -6.375 4.179688 -6.335938 4.453125 -6.265625 C 4.734375 -6.191406 4.988281 -6.085938 5.21875 -5.953125 Z M 5.21875 -5.953125 "/></g></g></g><g fill="#000000" fill-opacity="1"><g transform="translate(122.897588, 60.637748)"><g><path d="M 1.1875 -6.328125 L 4.3125 -6.328125 C 4.4375 -6.328125 4.539062 -6.28125 4.625 -6.1875 C 4.71875 -6.101562 4.765625 -6 4.765625 -5.875 C 4.765625 -5.75 4.71875 -5.644531 4.625 -5.5625 C 4.539062 -5.488281 4.4375 -5.453125 4.3125 -5.453125 L 1.59375 -5.453125 L 1.6875 -5.609375 L 1.6875 -3.578125 L 1.59375 -3.671875 L 3.90625 -3.671875 C 4.03125 -3.671875 4.132812 -3.628906 4.21875 -3.546875 C 4.3125 -3.460938 4.359375 -3.351562 4.359375 -3.21875 C 4.359375 -3.09375 4.3125 -2.988281 4.21875 -2.90625 C 4.132812 -2.832031 4.03125 -2.796875 3.90625 -2.796875 L 1.609375 -2.796875 L 1.6875 -2.875 L 1.6875 -0.796875 L 1.609375 -0.859375 L 4.3125 -0.859375 C 4.4375 -0.859375 4.539062 -0.816406 4.625 -0.734375 C 4.71875 -0.648438 4.765625 -0.550781 4.765625 -0.4375 C 4.765625 -0.3125 4.71875 -0.207031 4.625 -0.125 C 4.539062 -0.0390625 4.4375 0 4.3125 0 L 1.1875 0 C 1.0625 0 0.953125 -0.0390625 0.859375 -0.125 C 0.773438 -0.21875 0.734375 -0.328125 0.734375 -0.453125 L 0.734375 -5.859375 C 0.734375 -5.992188 0.773438 -6.101562 0.859375 -6.1875 C 0.953125 -6.28125 1.0625 -6.328125 1.1875 -6.328125 Z M 1.1875 -6.328125 "/></g></g></g><g fill="#000000" fill-opacity="1"><g transform="translate(127.631372, 60.637748)"><g><path d="M 2.671875 0.09375 C 2.234375 0.09375 1.847656 0.0351562 1.515625 -0.078125 C 1.179688 -0.203125 0.859375 -0.40625 0.546875 -0.6875 C 0.484375 -0.738281 0.4375 -0.796875 0.40625 -0.859375 C 0.375 -0.929688 0.359375 -1.003906 0.359375 -1.078125 C 0.359375 -1.191406 0.398438 -1.289062 0.484375 -1.375 C 0.566406 -1.46875 0.671875 -1.515625 0.796875 -1.515625 C 0.890625 -1.515625 0.976562 -1.484375 1.0625 -1.421875 C 1.289062 -1.210938 1.53125 -1.050781 1.78125 -0.9375 C 2.03125 -0.832031 2.328125 -0.78125 2.671875 -0.78125 C 2.910156 -0.78125 3.128906 -0.816406 3.328125 -0.890625 C 3.523438 -0.972656 3.679688 -1.078125 3.796875 -1.203125 C 3.921875 -1.335938 3.984375 -1.492188 3.984375 -1.671875 C 3.984375 -1.890625 3.921875 -2.066406 3.796875 -2.203125 C 3.679688 -2.347656 3.503906 -2.46875 3.265625 -2.5625 C 3.035156 -2.65625 2.757812 -2.734375 2.4375 -2.796875 C 2.132812 -2.847656 1.863281 -2.921875 1.625 -3.015625 C 1.382812 -3.117188 1.179688 -3.242188 1.015625 -3.390625 C 0.847656 -3.535156 0.71875 -3.710938 0.625 -3.921875 C 0.539062 -4.128906 0.5 -4.367188 0.5 -4.640625 C 0.5 -5.003906 0.59375 -5.316406 0.78125 -5.578125 C 0.976562 -5.847656 1.238281 -6.050781 1.5625 -6.1875 C 1.894531 -6.332031 2.269531 -6.40625 2.6875 -6.40625 C 3.070312 -6.40625 3.425781 -6.347656 3.75 -6.234375 C 4.082031 -6.117188 4.351562 -5.960938 4.5625 -5.765625 C 4.707031 -5.640625 4.78125 -5.503906 4.78125 -5.359375 C 4.78125 -5.242188 4.734375 -5.140625 4.640625 -5.046875 C 4.554688 -4.953125 4.457031 -4.90625 4.34375 -4.90625 C 4.257812 -4.90625 4.1875 -4.929688 4.125 -4.984375 C 4.03125 -5.085938 3.898438 -5.175781 3.734375 -5.25 C 3.578125 -5.332031 3.40625 -5.398438 3.21875 -5.453125 C 3.03125 -5.515625 2.851562 -5.546875 2.6875 -5.546875 C 2.414062 -5.546875 2.179688 -5.503906 1.984375 -5.421875 C 1.796875 -5.347656 1.648438 -5.25 1.546875 -5.125 C 1.453125 -5 1.40625 -4.847656 1.40625 -4.671875 C 1.40625 -4.460938 1.460938 -4.289062 1.578125 -4.15625 C 1.691406 -4.03125 1.851562 -3.925781 2.0625 -3.84375 C 2.28125 -3.757812 2.523438 -3.6875 2.796875 -3.625 C 3.117188 -3.550781 3.410156 -3.46875 3.671875 -3.375 C 3.941406 -3.289062 4.164062 -3.175781 4.34375 -3.03125 C 4.519531 -2.882812 4.65625 -2.707031 4.75 -2.5 C 4.851562 -2.289062 4.90625 -2.03125 4.90625 -1.71875 C 4.90625 -1.351562 4.800781 -1.035156 4.59375 -0.765625 C 4.394531 -0.492188 4.125 -0.28125 3.78125 -0.125 C 3.445312 0.0195312 3.078125 0.09375 2.671875 0.09375 Z M 2.671875 0.09375 "/></g></g></g></svg>